<svg width="789" height="324" viewBox="0 0 789 324" fill="none" xmlns="http://www.w3.org/2000/svg">
<path d="M433.029 312.499C409.085 326.87 379.915 326.87 355.971 312.499L40.5883 159.84C-30.4722 117.187 -2.28425 0.921104 79.117 0.921111L709.883 0.921166C791.284 0.921173 819.472 117.188 748.412 159.84L433.029 312.499Z" fill="#EA0029"/>
<rect x="20" y="20.75" width="749" height="129" rx="64.5" fill="white"/>
<rect x="30" y="30.75" width="110" height="109" rx="54.5" fill="#05141F"/>
<path d="M202.759 105.677H194.42V58.7282H202.759V78.0018H226.542V58.7282H234.882V105.677H226.542V84.7969H202.759V105.677ZM251.335 66.8206H243.366V58.3576H251.335V66.8206ZM251.335 105.677H243.366V71.9479H251.335V105.677ZM258.519 102.897V95.1132C261.175 98.5108 265.067 100.364 269.082 100.364C273.345 100.364 274.951 98.6344 274.951 96.5958C274.951 94.9279 274.148 93.7542 270.688 92.4569L267.291 91.1597C261.855 89.0594 258.457 86.156 258.457 80.7816C258.457 75.6544 262.349 71.0213 270.626 71.0213C274.889 71.0213 278.781 72.751 281.066 74.4806V82.1406C277.731 78.6195 274.086 77.1987 270.75 77.1987C266.982 77.1987 266.055 79.1755 266.055 80.2874C266.055 82.0171 267.414 82.9437 270.688 84.1792L274.024 85.4147C280.016 87.6385 282.672 90.8508 282.672 95.8545C282.672 102.897 276.989 106.603 269.02 106.603C264.634 106.603 260.619 104.874 258.519 102.897ZM292.135 78.0635H284.846V71.9479H292.135V61.6934H300.104V71.9479H307.579V78.0635H300.104V105.677H292.135V78.0635ZM309.406 89.3065V88.2563C309.406 78.496 316.51 71.0213 326.332 71.0213C336.154 71.0213 343.258 78.496 343.258 88.2563V89.3065C343.258 99.2521 336.154 106.603 326.332 106.603C316.51 106.603 309.406 99.1285 309.406 89.3065ZM317.684 88.2563V89.3065C317.684 95.4221 320.711 100.488 326.332 100.488C332.016 100.488 334.981 95.4221 334.981 89.3065V88.2563C334.981 82.2024 332.016 77.1369 326.332 77.1369C320.711 77.1369 317.684 82.2024 317.684 88.2563ZM357.092 105.677H349.123V71.9479H356.597L356.968 77.5076C358.389 73.6158 362.281 71.0213 367.099 71.0213C367.902 71.0213 369.137 71.1448 369.755 71.3302V78.4342C368.89 78.1253 367.902 77.94 366.79 77.94C362.342 77.94 358.265 80.7198 357.092 85.2911V105.677ZM384.85 105.553L371.569 71.9479H380.094L388.927 96.1016L398.008 71.9479H405.668L386.827 119.267H378.735L384.85 105.553ZM423.91 89.3065V88.2563C423.91 78.496 431.014 71.0213 440.837 71.0213C450.659 71.0213 457.763 78.496 457.763 88.2563V89.3065C457.763 99.2521 450.659 106.603 440.837 106.603C431.014 106.603 423.91 99.1285 423.91 89.3065ZM432.188 88.2563V89.3065C432.188 95.4221 435.215 100.488 440.837 100.488C446.52 100.488 449.485 95.4221 449.485 89.3065V88.2563C449.485 82.2024 446.52 77.1369 440.837 77.1369C435.215 77.1369 432.188 82.2024 432.188 88.2563ZM466.592 78.1253H459.92V71.9479H466.592V69.0445C466.592 63.1142 470.422 57.1221 478.515 57.1221C480.43 57.1221 482.468 57.6163 483.889 58.3576V65.4616C482.839 64.4114 481.233 63.6702 479.503 63.6702C476.785 63.6702 474.561 65.4616 474.561 69.2298V71.9479H482.406V78.1253H474.561V105.677H466.592V78.1253ZM502.436 82.7584V81.6464C502.436 68.1179 511.208 57.8016 525.972 57.8016C531.655 57.8016 537.153 59.9019 540.365 62.3729V71.8243C537.03 67.5002 532.211 64.535 526.281 64.535C518.065 64.535 511.455 71.2066 511.455 81.6464V82.7584C511.455 92.4569 516.953 99.8698 524.984 99.8698C533.014 99.8698 537.833 93.7542 537.894 86.156H525.725V79.4226H546.172V85.044C546.172 96.534 539.006 106.603 524.984 106.603C511.084 106.603 502.436 96.5958 502.436 82.7584ZM550.487 82.7584V81.6464C550.487 67.809 559.259 57.8016 573.405 57.8016C587.614 57.8016 596.324 67.809 596.324 81.6464V82.7584C596.324 96.5958 587.614 106.603 573.405 106.603C559.259 106.603 550.487 96.5958 550.487 82.7584ZM559.506 81.6464V82.7584C559.506 92.8276 564.634 99.9316 573.405 99.9316C582.239 99.9316 587.305 92.8276 587.305 82.7584V81.6464C587.305 71.5773 582.239 64.4732 573.405 64.4732C564.634 64.4732 559.506 71.5773 559.506 81.6464ZM632.896 105.677H602.935V58.7282H632.587V65.5234H611.275V78.1253H629.128V84.9205H611.275V98.8197H632.896V105.677ZM648.347 105.677H640.007V58.7282H670.153V65.5234H648.347V78.5577H666.199V85.5382H648.347V105.677Z" fill="#05141F"/>
<path d="M317.976 233.05H284.026V179.85H317.626V187.55H293.476V201.83H313.706V209.53H293.476V225.28H317.976V233.05ZM335.485 233.05H326.035V179.85H337.235L361.035 219.61V179.85H370.415V233.05H359.215L335.485 193.5V233.05ZM392.804 187.55H376.494V179.85H418.424V187.55H402.254V233.05H392.804V187.55ZM458.493 233.05H424.543V179.85H458.143V187.55H433.993V201.83H454.223V209.53H433.993V225.28H458.493V233.05ZM476.001 233.05H466.551V179.85H488.251C497.911 179.85 505.891 185.31 505.891 195.11V196.23C505.891 204.56 499.871 209.88 492.031 211.14L508.971 233.05H496.721L480.691 211.42H476.001V233.05ZM476.001 187.41V203.93H486.991C492.451 203.93 495.881 200.78 495.881 196.16V195.11C495.881 190.49 492.451 187.41 486.991 187.41H476.001Z" fill="white"/>
<path d="M59.4375 94.7773V100.552H110.559C110.559 99.8305 110.559 95.5867 110.559 94.7773H59.4375Z" fill="white"/>
<path d="M112.53 102.816H57.4813H55.4688V107.465H114.531V102.816H112.53Z" fill="white"/>
<path d="M70.9 88.7266V71.2266C69.5656 71.2266 66.525 71.2266 65.1578 71.2266H62.8828V88.7266H70.9Z" fill="white"/>
<path d="M89.0125 88.7266V71.2266C87.6672 71.2266 84.6375 71.2266 83.2594 71.2266H80.9844V88.7266H89.0125Z" fill="white"/>
<path d="M62.6797 90.9922H70.8172V92.5016H62.6797V90.9922Z" fill="white"/>
<path d="M80.9297 90.9922H89.0672V92.5016H80.9297V90.9922Z" fill="white"/>
<path d="M99.1875 90.9922H107.325V92.5016H99.1875V90.9922Z" fill="white"/>
<path d="M111.975 65.7586L85.0031 56.0352L58.0312 65.7586V68.9414H111.975V65.7586Z" fill="white"/>
<path d="M101.409 71.2063H99.1016V88.7063H107.119V71.2063C105.784 71.1953 102.733 71.2172 101.409 71.2063Z" fill="white"/>
</svg>
